<svg height="94px" xmlns="http://www.w3.org/2000/svg" viewBox="0 0 157.01 87.28"><title>Point RED</title><g id="Layer_2" data-name="Layer 2"><g id="Layer_1-2" data-name="Layer 1"><path d="M127.1,76.32A59.78,59.78,0,0,1,125.77,70q-.47-3.12-.94-6c-.31-1.9-1.76-5.4-3.47-5.72-7.69-1.41-29.45,17-31.09,19.29q.38-5.89.66-10.09t.66-7.77c0-.83-.19-1.36-.57-1.6a1.86,1.86,0,0,0-1.41-.18,3.51,3.51,0,0,0-1.51.71,1.45,1.45,0,0,0-.66,1.07q-.57,3.75-1,6.7t-.94,5.54c-.32,1.73-.6,3.48-.85,5.26S84,81,83.67,83.28a3.47,3.47,0,0,0,.85,3,2,2,0,0,0,3.3.17c6.69-7.32,29.6-23.61,30.72-22.9.74.48.85,2.19,1.11,4s.53,3.63.85,5.54a53.93,53.93,0,0,0,1.23,5.63,30.21,30.21,0,0,0,2.07,5.44c.13.6.63,1,1.51,1.34a6.68,6.68,0,0,0,2.64.36,2.85,2.85,0,0,0,2-.8q.66-.71-.09-2.32A25.49,25.49,0,0,1,127.1,76.32Z"/><path d="M54.94,61.48c-1.48-1-6.52,1.2-5.33,2a22.07,22.07,0,0,1,9.22,12.17,10.58,10.58,0,0,1,.22,6c-.77,2.69-2.89,1.34-5.08.5-10.35-4-12.81-21.24-3.44-27.25,1-.62.65-1.4-.43-1.53a6.41,6.41,0,0,0-4,1c-6.34,4.06-7.88,11.44-6.44,18.21,1.51,7.06,7.08,12.13,14.58,13.17,5.53.77,10.57-2.18,10.88-7.55C65.46,71.74,60.33,65,54.94,61.48Z"/><path d="M22.8,80.25c-15.2,4.85-16-23-16-31.62C6.64,35.84,9.13,16.51,21.32,8.57c14-9.14,31.79-.48,32.41,14.91C54.43,41.13,36.1,49.22,20,48.63c-4-.15-4,5.7,0,5.85,20.46.76,39.34-10.18,39.87-31C60.42,3,39.35-3.74,21.69,1.93-6.56,11-8.81,96.5,24.44,85.89,28.19,84.69,26.58,79,22.8,80.25Z"/><path d="M75.46,55.34c3.62,8.09-1.73,20.86-7,27.13-2,2.42,1.43,5.93,3.49,3.5,7-8.23,12.47-22.68,7.8-33.12C78.43,49.94,74.17,52.45,75.46,55.34Z"/><path d="M74.19,44.54c5.38,0,5.38-7.9,0-7.9S68.81,44.54,74.19,44.54Z"/><path d="M19,23.91a2.37,2.37,0,1,0,0,4.74A2.37,2.37,0,1,0,19,23.91Z"/><path d="M156.3,30.48A53,53,0,0,0,145.8,22c.64-1.94,1.23-3.78,1.75-5.48.93-3.06-4.35-4.36-5.27-1.31-.4,1.34-.85,2.74-1.31,4.18-8.09-3.83-17-5.48-26.8-5.6-3.19,0-3.19,4.91,0,4.94,9.3.12,17.7,1.66,25.28,5.4-6.21,19.26-14,44.9.48,60,2.21,2.3,6.2-1.2,4-3.5-12.4-12.93-5.49-36.2.28-53.78A49.23,49.23,0,0,1,152.8,34C155,36.27,158.51,32.77,156.3,30.48Z"/></g></g></svg>
